PathFileType	4	(X/Y/Z)	./resultDataOpenSim/trcMotMarkerGrf/sub06/qtm-12-03.trc
DataRate	CameraRate	NumFrames	NumMarkers	Units	OrigDataRate	OrigDataStartFrame	OrigNumFrames
250.000000	250.000000	12	24	m	250.000000	262	523
Frame#	Time	L.Toe.Tip			R.Toe.Tip			L.Ankle.Lat			R.Ankle.Lat			L.Ankle.Med			R.Ankle.Med			L.Heel			R.Heel			L.Knee.Lat			R.Knee.Lat			L.Knee.Med			R.Knee.Med			L.Thigh.Upper			R.Thigh.Upper			L.ASIS			R.ASIS			V.Sacral			L.Acromium			R.Acromium			C7			L.Elbow			R.Elbow			L.Wrist.Lat			R.Wrist.Lat
		X1	Y1	Z1	X2	Y2	Z2	X3	Y3	Z3	X4	Y4	Z4	X5	Y5	Z5	X6	Y6	Z6	X7	Y7	Z7	X8	Y8	Z8	X9	Y9	Z9	X10	Y10	Z10	X11	Y11	Z11	X12	Y12	Z12	X13	Y13	Z13	X14	Y14	Z14	X15	Y15	Z15	X16	Y16	Z16	X17	Y17	Z17	X18	Y18	Z18	X19	Y19	Z19	X20	Y20	Z20	X21	Y21	Z21	X22	Y22	Z22	X23	Y23	Z23	X24	Y24	Z24

262	1.044	0.076016571	0.0091838706	-0.040081205	0.844011	0.072805632	0.15151699	-0.0085910155	0.098932152	-0.069120519	0.70352134	0.062165582	0.17134687	0.0023483777	0.11129131	0.016216285	0.72248901	0.088752769	0.085845628	-0.083402443	0.11179372	-0.021812889	0.66239444	0.029206397	0.11019974	0.22726489	0.39302746	-0.081147733	0.62688545	0.44665693	0.1785731	0.22430564	0.39691801	0.042451675	0.60759817	0.42540043	0.05437697	0.3400945	0.76005135	-0.12552242	0.43900712	0.76126677	0.21501929	0.43351156	0.80492431	-0.1057828	0.50222456	0.81506769	0.13238216	0.29334395	0.87713121	0.073098356	0.41466141	1.2999098	-0.12957141	0.39955816	1.2682299	0.23137145	0.33219698	1.3202781	0.047113291	0.48092535	0.97708663	-0.21330261	0.23095165	1.0075766	0.27034701	0.72856765	1.0161236	-0.14450558	0.21985162	0.78711782	0.36041842
263	1.048	0.076390188	0.0091684257	-0.040052609	0.84855048	0.065134876	0.15068484	-0.0058760101	0.10125276	-0.069848647	0.7073544	0.061097095	0.17109476	0.0058183768	0.11327159	0.015347022	0.72713573	0.086084045	0.085051077	-0.079763881	0.11562095	-0.022424582	0.66457706	0.030505476	0.10954659	0.23545001	0.39162866	-0.081424196	0.63289372	0.44419914	0.17856436	0.23232801	0.39548399	0.042091998	0.61386046	0.423616	0.054427543	0.34821538	0.75878727	-0.1246425	0.44735158	0.7606384	0.21553178	0.44166793	0.8037644	-0.10504409	0.51035984	0.81452706	0.13291119	0.3009241	0.87628646	0.073660078	0.42123297	1.2990437	-0.12851796	0.40731516	1.2671009	0.23246451	0.33928174	1.3191549	0.048414105	0.48872964	0.9766468	-0.21212449	0.23919879	1.0061316	0.271579	0.73534297	1.0155881	-0.143529	0.22885113	0.78563327	0.36166742
264	1.052	0.076761526	0.0091284115	-0.040003978	0.85342466	0.057452273	0.15095655	-0.0027935542	0.10351291	-0.070663262	0.71208499	0.060897379	0.17130514	0.0095230404	0.11525633	0.014412861	0.73272297	0.08409136	0.084752064	-0.075836023	0.11956384	-0.023048518	0.66714485	0.032356592	0.10963268	0.24389709	0.39007592	-0.081699816	0.63901079	0.44189778	0.17860202	0.24055992	0.3939179	0.041703138	0.6199365	0.42150878	0.05456009	0.35642409	0.75747826	-0.12373029	0.45564763	0.75999853	0.21610848	0.44988257	0.80257623	-0.1042307	0.51838406	0.81402047	0.13352455	0.30820238	0.87564621	0.073777355	0.42783579	1.2982241	-0.12744903	0.41512989	1.2659952	0.23357259	0.34641147	1.3181306	0.049760127	0.49648807	0.97623401	-0.21095926	0.2475986	1.0046667	0.27282973	0.74206278	1.0149074	-0.14255675	0.23817184	0.78411513	0.36291482
265	1.056	0.077134426	0.0090846951	-0.039962408	0.8577259	0.05110487	0.15195082	0.00060957257	0.10576328	-0.07156434	0.71712238	0.061002877	0.17171153	0.013483277	0.11723722	0.01340275	0.73830162	0.082620402	0.084768694	-0.071566947	0.12363985	-0.023750378	0.66972191	0.034175238	0.11039019	0.252628	0.38837371	-0.082002802	0.64554397	0.44011051	0.17864713	0.24901633	0.39221114	0.041269793	0.62581818	0.41915896	0.054878048	0.36470139	0.75611329	-0.12281453	0.46383793	0.75941646	0.21676061	0.45812101	0.80136685	-0.10333555	0.52630657	0.81354744	0.13422893	0.31535604	0.87516583	0.073586847	0.43446916	1.2974635	-0.12637946	0.42300815	1.2649156	0.23468987	0.35361925	1.3171988	0.051152489	0.50415487	0.97582967	-0.20981397	0.25618583	1.0031874	0.27408943	0.74872665	1.0140797	-0.14159086	0.24772609	0.78256741	0.36414928
266	1.06	0.077513803	0.0090578043	-0.039958927	0.8609132	0.046754573	0.15285639	0.0043295256	0.10802701	-0.072554567	0.72159685	0.060897117	0.17207703	0.017746954	0.11920593	0.0123224	0.74275708	0.081514053	0.084814717	-0.066875783	0.1278226	-0.024565834	0.67191752	0.035552861	0.11136164	0.26167106	0.38654178	-0.082364541	0.65277709	0.43919018	0.17865399	0.25771283	0.39036204	0.040766631	0.63153113	0.41678747	0.055476134	0.37302328	0.75468615	-0.12193268	0.47187865	0.75899172	0.21748473	0.46635007	0.80014315	-0.10235091	0.53412765	0.81310552	0.13502707	0.32257172	0.87478897	0.073178909	0.44113814	1.2967651	-0.12532144	0.4309497	1.2638673	0.23581014	0.36092711	1.3163434	0.052578825	0.51168288	0.97541411	-0.20869629	0.26489871	1.0017011	0.27537483	0.75533133	1.0131006	-0.14063693	0.25742976	0.78098975	0.36535735
267	1.064	0.077924037	0.0090590921	-0.040006311	0.8629826	0.044094985	0.15308623	0.0084016448	0.11029398	-0.073626369	0.72484565	0.060465345	0.17226708	0.022372074	0.12114571	0.011188431	0.74547201	0.080722322	0.084661328	-0.061696045	0.13207661	-0.025457633	0.67349561	0.036380222	0.11207665	0.27105272	0.38460209	-0.082817423	0.66085221	0.43934309	0.17857357	0.26666012	0.38837942	0.040171936	0.63709702	0.41473907	0.056400019	0.38137231	0.75320193	-0.12111655	0.47973278	0.75882374	0.21826339	0.47454747	0.79891452	-0.10126856	0.54184356	0.81270682	0.13591394	0.32985814	0.8744953	0.07252834	0.44785086	1.2961283	-0.12428171	0.43894372	1.2628569	0.23692756	0.36832968	1.3155643	0.054016345	0.51902285	0.97496666	-0.20761406	0.27365358	1.0002133	0.27670288	0.7618723	1.0119721	-0.13970545	0.26728624	0.77938498	0.366535
268	1.068	0.078422366	0.0090920622	-0.040095884	0.86421549	0.042371053	0.15253826	0.012857412	0.11253893	-0.074744844	0.72672744	0.060012697	0.1722021	0.027412435	0.12302805	0.010020175	0.74661496	0.080239786	0.084223892	-0.056019829	0.13640718	-0.026334377	0.67444848	0.036773092	0.11236313	0.28078878	0.38256866	-0.083396997	0.66973939	0.44055306	0.17834463	0.27586449	0.38628002	0.039473817	0.64253427	0.41337822	0.057595489	0.3897383	0.75167392	-0.12038013	0.48738071	0.75898629	0.21908317	0.48270406	0.79769404	-0.10008446	0.54946014	0.81238028	0.13687953	0.33714455	0.874263	0.07179778	0.45461647	1.2955541	-0.12326076	0.44697799	1.2618887	0.23803811	0.37580181	1.3148771	0.055441181	0.5261256	0.97446845	-0.20657297	0.28244043	0.99872499	0.27806036	0.76834658	1.0106988	-0.13880827	0.2773481	0.77776154	0.36768393
269	1.072	0.079065628	0.0091528494	-0.040220478	0.86500011	0.041028229	0.15137561	0.017708649	0.11473576	-0.07586063	0.7275831	0.059965381	0.17182807	0.032909719	0.12482434	0.0088333899	0.74688968	0.080013595	0.083552212	-0.049866548	0.14083638	-0.027113195	0.67496425	0.036925101	0.11231317	0.2908736	0.38044952	-0.084135254	0.67929305	0.44259485	0.17790849	0.28533871	0.38408116	0.038667934	0.64791512	0.41296516	0.058891251	0.39811575	0.75011453	-0.11971638	0.49483547	0.75950418	0.21994181	0.4908162	0.79649304	-0.098803353	0.5569988	0.81216205	0.13791825	0.34448888	0.87401814	0.07149711	0.46144447	1.2950455	-0.12225883	0.45504666	1.2609626	0.23914096	0.38332011	1.3142895	0.056833952	0.53295054	0.97390932	-0.2055725	0.29129872	0.99723536	0.27941528	0.77475417	1.0092837	-0.13795137	0.28762019	0.77612507	0.36880099
270	1.076	0.079864904	0.0092313648	-0.040391988	0.86573145	0.039900524	0.14982224	0.022943425	0.11687164	-0.076928842	0.72794205	0.060531542	0.17116911	0.038887316	0.12652755	0.0076371044	0.74700434	0.079927658	0.082764093	-0.043213188	0.14533874	-0.027773954	0.67531091	0.037005303	0.11208894	0.3012738	0.37825981	-0.085046107	0.68930285	0.44511637	0.17725125	0.29511085	0.38179202	0.037747934	0.65343239	0.41357967	0.060019143	0.40650247	0.74853141	-0.11910359	0.5021528	0.76034622	0.22084405	0.49887643	0.79531709	-0.097434063	0.56450163	0.81208976	0.13904325	0.35201762	0.87367873	0.072001455	0.46834431	1.2946053	-0.12128136	0.4631429	1.2600784	0.2402333	0.39087586	1.313793	0.058179274	0.53947987	0.97329526	-0.20460399	0.3002562	0.9957451	0.28074279	0.78109459	1.0077337	-0.13713349	0.29804628	0.77447444	0.36987854
271	1.08	0.080797778	0.0093278953	-0.04063073	0.86664214	0.038979625	0.14817139	0.028527247	0.11896254	-0.077911659	0.72823938	0.061573376	0.17036063	0.045338914	0.12817156	0.0064387375	0.74732239	0.079859354	0.081984327	-0.036017129	0.14985936	-0.028356367	0.67569328	0.037119439	0.11182781	0.31193785	0.37603411	-0.086119421	0.69950425	0.4477401	0.17643938	0.30522111	0.37941064	0.03669769	0.65936308	0.41510632	0.060681678	0.41489151	0.74692803	-0.1185114	0.50941988	0.7614403	0.22179894	0.50687473	0.79417112	-0.095980805	0.57202784	0.81219906	0.14028517	0.3597004	0.87323709	0.073039897	0.47532609	1.2942371	-0.12033431	0.47125109	1.2592413	0.24130259	0.39846132	1.3133863	0.059472483	0.54572577	0.97264504	-0.20365804	0.3093145	0.99425532	0.2820355	0.78736248	1.00606	-0.13635129	0.30862767	0.77281785	0.37091707
272	1.084	0.081864247	0.0094788213	-0.040940307	0.86771728	0.038211839	0.14678312	0.034419413	0.12106775	-0.078787782	0.72872289	0.062713911	0.16957949	0.052202329	0.12984296	0.0052629417	0.74789074	0.079751673	0.081317032	-0.028322603	0.15440435	-0.028904198	0.67616923	0.037298731	0.11163153	0.32281363	0.37382582	-0.087331837	0.70962164	0.45014877	0.1756124	0.31569904	0.37693401	0.035510256	0.66590688	0.41728348	0.060676274	0.42326611	0.74530687	-0.11790353	0.5166978	0.7626859	0.22280407	0.51480374	0.79306462	-0.094446864	0.57961325	0.81250823	0.14165606	0.36736112	0.87275746	0.073977868	0.48239711	1.2939448	-0.1194185	0.47935437	1.2584629	0.24232877	0.40603681	1.3131018	0.060736907	0.55171649	0.9719759	-0.20273331	0.31846133	0.9927633	0.28330294	0.79355158	1.0042727	-0.13560155	0.31947781	0.77118063	0.37192777
273	1.088	0.083120872	0.0097677748	-0.041293548	0.86878501	0.037538221	0.145915	0.040604277	0.12328766	-0.079568674	0.72948313	0.063548288	0.1689477	0.059329085	0.13167548	0.0041756628	0.74862161	0.079621039	0.080821455	-0.020286394	0.15906017	-0.029421987	0.67667771	0.037508331	0.11154423	0.33386176	0.37168878	-0.088657093	0.71941483	0.45214694	0.17490654	0.32652669	0.37436821	0.034220335	0.67304333	0.41980506	0.05999567	0.43161194	0.74367591	-0.11724635	0.5239627	0.76396457	0.22382686	0.52266136	0.79200843	-0.092842811	0.58722935	0.81300141	0.14312191	0.37488374	0.87230574	0.074484394	0.48955234	1.2937298	-0.1185313	0.48744704	1.2577554	0.24329513	0.41352376	1.3129972	0.062026125	0.55747276	0.97130016	-0.20182643	0.32768539	0.99126322	0.28456654	0.79966284	1.0023772	-0.13487985	0.33067822	0.76958248	0.37291469
